<?xml version="1.0" encoding="UTF-8" standalone="no"?><svg xmlns="http://www.w3.org/2000/svg" xmlns:xlink="http://www.w3.org/1999/xlink" contentStyleType="text/css" height="535px" preserveAspectRatio="none" style="width:462px;height:535px;background:#FFFFFF;" version="1.1" viewBox="0 0 462 535" width="462px" zoomAndPan="magnify"><defs><filter height="1" id="b1f72bh6hugyk90" width="1" x="0" y="0"><feFlood flood-color="#FFA500" result="flood"/><feComposite in="SourceGraphic" in2="flood" operator="over"/></filter></defs><g><text fill="#888888" font-family="sans-serif" font-size="10" font-weight="bold" lengthAdjust="spacing" textLength="287" x="167" y="10.3809">rocket\rocket_5e9d0d95eda69973a809d1ec.compact.puml</text><text fill="#888888" font-family="sans-serif" font-size="10" lengthAdjust="spacing" textLength="3" x="451" y="22.959"> </text><!--class 5e9d0d95eda69973a809d1ec--><g id="elem_5e9d0d95eda69973a809d1ec"><rect codeLine="20" fill="#FFA500" height="277.9219" id="5e9d0d95eda69973a809d1ec" rx="2.5" ry="2.5" style="stroke:#181818;stroke-width:0.5;" width="338" x="58.5" y="33.1563"/><ellipse cx="172.25" cy="49.1563" fill="#FFA500" rx="11" ry="11" style="stroke:#181818;stroke-width:1.0;"/><path d="M171.0938,50.3125 L171.0938,52.4531 L171.7031,52.4531 Q172.3281,52.4531 172.5859,52.6875 Q172.8438,52.9219 172.8438,53.3125 Q172.8438,53.6875 172.5859,53.9219 Q172.3281,54.1563 171.7031,54.1563 L169.125,54.1563 Q168.5156,54.1563 168.25,53.9219 Q167.9844,53.6875 167.9844,53.2969 Q167.9844,52.9219 168.25,52.6875 Q168.5156,52.4531 169.125,52.4531 L169.3906,52.4531 L169.3906,45.7969 L169.125,45.7969 Q168.5156,45.7969 168.25,45.5625 Q167.9844,45.3281 167.9844,44.9375 Q167.9844,44.5625 168.25,44.3281 Q168.5156,44.0938 169.125,44.0938 L172.9844,44.0938 Q174.7813,44.0938 175.7734,44.9844 Q176.7656,45.875 176.7656,47.1563 Q176.7656,47.9531 176.2969,48.6094 Q175.8281,49.2656 174.8906,49.7656 Q175.4375,50.2344 176.0469,50.9844 Q176.4375,51.4531 177.0781,52.4531 Q177.7344,52.4531 177.9375,52.5938 Q178.3125,52.8438 178.3125,53.3125 Q178.3125,53.6875 178.0547,53.9219 Q177.7969,54.1563 177.1875,54.1563 L176.2031,54.1563 Q174.1406,50.9531 172.7813,50.3125 L171.0938,50.3125 Z M171.0938,48.6094 L172.4219,48.6094 Q173.1563,48.6094 173.75,48.3906 Q174.5313,48.0938 174.7969,47.7578 Q175.0625,47.4219 175.0625,47.0938 Q175.0625,46.625 174.5469,46.2109 Q174.0313,45.7969 173.0469,45.7969 L171.0938,45.7969 L171.0938,48.6094 Z " fill="#000000"/><text fill="#000000" font-family="sans-serif" font-size="14" lengthAdjust="spacing" text-decoration="underline" textLength="39" x="192.75" y="54.8848">rocket</text><text fill="#000000" font-family="sans-serif" font-size="14" lengthAdjust="spacing" textLength="4" x="231.75" y="54.8848"> </text><text fill="#000000" font-family="sans-serif" font-size="14" font-weight="bold" lengthAdjust="spacing" textLength="59" x="235.75" y="54.8848">Falcon 9</text><line style="stroke:#181818;stroke-width:0.5;" x1="59.5" x2="395.5" y1="65.1563" y2="65.1563"/><text fill="#000000" font-family="sans-serif" font-size="14" font-weight="bold" lengthAdjust="spacing" textLength="257" x="64.5" y="83.6895">rocket - 5e9d0d95eda69973a809d1ec</text><text fill="#000000" font-family="sans-serif" font-size="14" font-weight="bold" lengthAdjust="spacing" textLength="60" x="72.5" y="107.2988">attribute</text><text fill="#000000" font-family="sans-serif" font-size="14" font-weight="bold" lengthAdjust="spacing" textLength="39" x="191.5" y="107.2988">value</text><text fill="#000000" font-family="sans-serif" font-size="14" lengthAdjust="spacing" textLength="11" x="72.5" y="124.9082">id</text><text fill="#000000" font-family="sans-serif" font-size="14" lengthAdjust="spacing" textLength="191" x="191.5" y="124.9082">5e9d0d95eda69973a809d1ec</text><text fill="#000000" font-family="sans-serif" font-size="14" lengthAdjust="spacing" textLength="35" x="72.5" y="142.5176">name</text><text fill="#000000" font-family="sans-serif" font-size="14" lengthAdjust="spacing" textLength="55" x="191.5" y="142.5176">Falcon 9</text><text fill="#000000" font-family="sans-serif" font-size="14" lengthAdjust="spacing" textLength="27" x="72.5" y="160.127">type</text><text fill="#000000" font-family="sans-serif" font-size="14" lengthAdjust="spacing" textLength="39" x="191.5" y="160.127">rocket</text><text fill="#000000" font-family="sans-serif" font-size="14" lengthAdjust="spacing" textLength="37" x="72.5" y="177.7363">active</text><text fill="#000000" font-family="sans-serif" font-size="14" lengthAdjust="spacing" textLength="25" x="191.5" y="177.7363">true</text><text fill="#000000" font-family="sans-serif" font-size="14" lengthAdjust="spacing" textLength="42" x="72.5" y="195.3457">stages</text><text fill="#000000" font-family="sans-serif" font-size="14" lengthAdjust="spacing" textLength="8" x="191.5" y="195.3457">2</text><text fill="#000000" font-family="sans-serif" font-size="14" lengthAdjust="spacing" textLength="55" x="72.5" y="212.9551">boosters</text><text fill="#000000" font-family="sans-serif" font-size="14" lengthAdjust="spacing" textLength="8" x="191.5" y="212.9551">0</text><text fill="#000000" font-family="sans-serif" font-size="14" lengthAdjust="spacing" textLength="105" x="72.5" y="230.5645">cost_per_launch</text><text fill="#000000" font-family="sans-serif" font-size="14" lengthAdjust="spacing" textLength="64" x="191.5" y="230.5645">50000000</text><text fill="#000000" font-family="sans-serif" font-size="14" lengthAdjust="spacing" textLength="111" x="72.5" y="248.1738">success_rate_pct</text><text fill="#000000" font-family="sans-serif" font-size="14" lengthAdjust="spacing" textLength="16" x="191.5" y="248.1738">98</text><text fill="#000000" font-family="sans-serif" font-size="14" lengthAdjust="spacing" textLength="61" x="72.5" y="265.7832">first_flight</text><text fill="#000000" font-family="sans-serif" font-size="14" lengthAdjust="spacing" textLength="74" x="191.5" y="265.7832">2010-06-04</text><text fill="#000000" font-family="sans-serif" font-size="14" lengthAdjust="spacing" textLength="47" x="72.5" y="283.3926">country</text><text fill="#000000" font-family="sans-serif" font-size="14" lengthAdjust="spacing" textLength="84" x="191.5" y="283.3926">United States</text><text fill="#000000" font-family="sans-serif" font-size="14" lengthAdjust="spacing" textLength="57" x="72.5" y="301.002">company</text><text fill="#000000" font-family="sans-serif" font-size="14" lengthAdjust="spacing" textLength="48" x="191.5" y="301.002">SpaceX</text><line style="stroke:#000000;stroke-width:1.0;" x1="68.5" x2="386.5" y1="92.7656" y2="92.7656"/><line style="stroke:#000000;stroke-width:1.0;" x1="68.5" x2="386.5" y1="110.375" y2="110.375"/><line style="stroke:#000000;stroke-width:1.0;" x1="68.5" x2="386.5" y1="127.9844" y2="127.9844"/><line style="stroke:#000000;stroke-width:1.0;" x1="68.5" x2="386.5" y1="145.5938" y2="145.5938"/><line style="stroke:#000000;stroke-width:1.0;" x1="68.5" x2="386.5" y1="163.2031" y2="163.2031"/><line style="stroke:#000000;stroke-width:1.0;" x1="68.5" x2="386.5" y1="180.8125" y2="180.8125"/><line style="stroke:#000000;stroke-width:1.0;" x1="68.5" x2="386.5" y1="198.4219" y2="198.4219"/><line style="stroke:#000000;stroke-width:1.0;" x1="68.5" x2="386.5" y1="216.0313" y2="216.0313"/><line style="stroke:#000000;stroke-width:1.0;" x1="68.5" x2="386.5" y1="233.6406" y2="233.6406"/><line style="stroke:#000000;stroke-width:1.0;" x1="68.5" x2="386.5" y1="251.25" y2="251.25"/><line style="stroke:#000000;stroke-width:1.0;" x1="68.5" x2="386.5" y1="268.8594" y2="268.8594"/><line style="stroke:#000000;stroke-width:1.0;" x1="68.5" x2="386.5" y1="286.4688" y2="286.4688"/><line style="stroke:#000000;stroke-width:1.0;" x1="68.5" x2="386.5" y1="304.0781" y2="304.0781"/><line style="stroke:#000000;stroke-width:1.0;" x1="68.5" x2="68.5" y1="92.7656" y2="304.0781"/><line style="stroke:#000000;stroke-width:1.0;" x1="187.5" x2="187.5" y1="92.7656" y2="304.0781"/><line style="stroke:#000000;stroke-width:1.0;" x1="386.5" x2="386.5" y1="92.7656" y2="304.0781"/></g><rect fill="#DDDDDD" height="158.875" id="_legend" rx="7.5" ry="7.5" style="stroke:#000000;stroke-width:1.0;" width="430" x="12" y="330.0781"/><text fill="#000000" font-family="sans-serif" font-size="14" lengthAdjust="spacing" textLength="4" x="17" y="351.6113"> </text><text fill="#000000" font-family="sans-serif" font-size="14" font-weight="bold" lengthAdjust="spacing" textLength="72" x="21" y="351.6113">json2puml</text><text fill="#000000" font-family="sans-serif" font-size="14" lengthAdjust="spacing" textLength="4" x="130" y="351.6113"> </text><text fill="#000000" font-family="sans-serif" font-size="14" font-weight="bold" lengthAdjust="spacing" textLength="61" x="134" y="351.6113">v2.0.7.59</text><text fill="#000000" font-family="sans-serif" font-size="14" lengthAdjust="spacing" textLength="84" x="21" y="369.2207">Generated at</text><text fill="#000000" font-family="sans-serif" font-size="14" lengthAdjust="spacing" textLength="132" x="134" y="369.2207">26.01.2023 22:53:59</text><text fill="#000000" font-family="sans-serif" font-size="14" lengthAdjust="spacing" textLength="86" x="21" y="386.8301">Definition File</text><text fill="#000000" font-family="sans-serif" font-size="14" lengthAdjust="spacing" textLength="243" x="134" y="386.8301">samples\spacex\spacex_definition.json</text><text fill="#000000" font-family="sans-serif" font-size="14" lengthAdjust="spacing" textLength="84" x="21" y="404.4395">Input List File</text><text fill="#000000" font-family="sans-serif" font-size="14" lengthAdjust="spacing" textLength="299" x="134" y="404.4395">samples\spacex\spacex_inputlist_launches.json</text><text fill="#000000" font-family="sans-serif" font-size="14" lengthAdjust="spacing" textLength="105" x="21" y="422.0488">Definition Option</text><text fill="#000000" font-family="sans-serif" font-size="14" lengthAdjust="spacing" textLength="53" x="134" y="422.0488">compact</text><line style="stroke:#000000;stroke-width:1.0;" x1="17" x2="437" y1="337.0781" y2="337.0781"/><line style="stroke:#000000;stroke-width:1.0;" x1="17" x2="437" y1="354.6875" y2="354.6875"/><line style="stroke:#000000;stroke-width:1.0;" x1="17" x2="437" y1="372.2969" y2="372.2969"/><line style="stroke:#000000;stroke-width:1.0;" x1="17" x2="437" y1="389.9063" y2="389.9063"/><line style="stroke:#000000;stroke-width:1.0;" x1="17" x2="437" y1="407.5156" y2="407.5156"/><line style="stroke:#000000;stroke-width:1.0;" x1="17" x2="437" y1="425.125" y2="425.125"/><line style="stroke:#000000;stroke-width:1.0;" x1="17" x2="17" y1="337.0781" y2="425.125"/><line style="stroke:#000000;stroke-width:1.0;" x1="130" x2="130" y1="337.0781" y2="425.125"/><line style="stroke:#000000;stroke-width:1.0;" x1="437" x2="437" y1="337.0781" y2="425.125"/><text fill="#000000" font-family="sans-serif" font-size="14" lengthAdjust="spacing" textLength="4" x="17" y="441.6582"> </text><text fill="#000000" font-family="sans-serif" font-size="14" font-weight="bold" lengthAdjust="spacing" textLength="16" x="17" y="461.2676">    </text><text fill="#000000" font-family="sans-serif" font-size="14" font-weight="bold" lengthAdjust="spacing" textLength="91" x="41" y="461.2676">Objectformat</text><text fill="#000000" font-family="sans-serif" font-size="14" lengthAdjust="spacing" textLength="4" x="17" y="478.877"> </text><text fill="#000000" filter="url(#b1f72bh6hugyk90)" font-family="sans-serif" font-size="14" lengthAdjust="spacing" textLength="12" x="21" y="478.877">   </text><text fill="#000000" font-family="sans-serif" font-size="14" lengthAdjust="spacing" textLength="4" x="33" y="478.877"> </text><text fill="#000000" font-family="sans-serif" font-size="14" lengthAdjust="spacing" textLength="59" x="41" y="478.877">hardware</text><line style="stroke:#000000;stroke-width:1.0;" x1="17" x2="136" y1="446.7344" y2="446.7344"/><line style="stroke:#000000;stroke-width:1.0;" x1="17" x2="136" y1="464.3438" y2="464.3438"/><line style="stroke:#000000;stroke-width:1.0;" x1="17" x2="136" y1="481.9531" y2="481.9531"/><line style="stroke:#000000;stroke-width:1.0;" x1="17" x2="17" y1="446.7344" y2="481.9531"/><line style="stroke:#000000;stroke-width:1.0;" x1="37" x2="37" y1="446.7344" y2="481.9531"/><line style="stroke:#000000;stroke-width:1.0;" x1="136" x2="136" y1="446.7344" y2="481.9531"/><text fill="#888888" font-family="sans-serif" font-size="10" lengthAdjust="spacing" textLength="3" x="225.5" y="512.334"> </text><text fill="#888888" font-family="sans-serif" font-size="10" font-weight="bold" lengthAdjust="spacing" textLength="287" x="83.5" y="524.9121">rocket\rocket_5e9d0d95eda69973a809d1ec.compact.puml</text><!--SRC=[dLDHQzim47xNhn1zsc1n7MT9w-3veIiTWq6XOR27GZXBbqIDB1b9JbUQ_lUTR3STXFIXUf3GtNVVwRuxRPH4xWCwjE6fGSRyLfa67DHSQF2UFxCh4DkriwsHtwsshYWqj4Piof9VWzikGDVM78E4mqU2DBgjZvqDI4_ENsgz2OljqvLkyHYq0ISVmI41hGEpVWSoaXX0QN-0tg5aBunj42GwLbIbisABuRu_bbFCPIhpAKgOvVd512xJN8vH9CBM3OYGD6sj6KCZ1uQLjQGH-oWJ4GqClQXdHJlm5ETjoOdr1hImXkV5ULMUSV3y534l2lxfxajVvcV-gW2dqf_VdiT79mbY1hR_nY44fwes8AVB3gW5VC_sN4c-Fvqy8WpK1EMlB-viSNR8DYIF5gfTxQ8jk87P1rYZ9qlMNIjhuzn5GzeP1DsN3RfbFr_n6Mc_-l1M2FH-wI3WiX6KXUUNdMUb74MkT9ocI9-Eqr4w6wLV1zhM1FT4Zjz61PHy4OZ13pvgaec-1JKB_v3nXMbSKx_8Ise-U6kos4BUNNTPaYONoRGl-WSQZA-Hf6NCEqlISPAbsOHdsNmwcG-mQrmfogn8h1kbeoGUwaQZl_SnwT_XMCe3BebfkzYVfca3_HCVtezL4QS9DeY7_etZl_otJNSCXKSDMHm5MhJVLWyemigw6leM5XNzjta_QILXQ7B8K5BuOUeEmH_PuxVWWzhi7m00]--></g></svg>